<svg width="68" height="84" viewBox="0 0 68 84" fill="none" xmlns="http://www.w3.org/2000/svg">
<path d="M50.1888 29.6647H46.4622C46.2347 28.9425 45.9453 28.2433 45.596 27.5724L48.2308 24.9374C48.5601 24.6082 48.7414 24.1703 48.7414 23.7045C48.7414 23.2386 48.5601 22.8007 48.2308 22.4714L45.1299 19.3703C44.45 18.6909 43.3439 18.6906 42.6639 19.3705L40.0289 22.0055C39.358 21.6562 38.6586 21.3666 37.9366 21.1392V17.4126C37.9364 16.4512 37.1542 15.6688 36.1926 15.6688H31.8071C30.8457 15.6688 30.0634 16.451 30.0634 17.4126V21.1392C29.3412 21.3668 28.642 21.6562 27.971 22.0055L25.3358 19.3703C24.6559 18.6908 23.5498 18.6909 22.8699 19.3705L19.7692 22.4713C19.4397 22.8005 19.2583 23.2384 19.2583 23.7044C19.2583 24.1701 19.4397 24.608 19.769 24.9373L22.404 27.5723C22.0547 28.2431 21.7652 28.9425 21.5378 29.6646H17.8111C16.8497 29.6646 16.0674 30.4468 16.0674 31.4084V35.7939C16.0674 36.7553 16.8497 37.5376 17.8111 37.5376H21.5378C21.7653 38.2596 22.0547 38.9592 22.404 39.6299L19.769 42.2649C19.0891 42.9447 19.0891 44.051 19.769 44.7309L22.8699 47.8318C23.5498 48.5119 24.6563 48.5117 25.336 47.8318L27.971 45.1968C28.6418 45.5461 29.3414 45.8357 30.0634 46.0631V49.7897C30.0634 50.7511 30.8457 51.5334 31.8071 51.5334H36.1926C37.154 51.5334 37.9364 50.7511 37.9364 49.7897V46.0631C38.6583 45.8357 39.3579 45.5461 40.0287 45.1968L42.6637 47.8318C43.3438 48.5119 44.45 48.5117 45.1299 47.8318L48.2307 44.7309C48.5599 44.4016 48.7412 43.9637 48.7412 43.498C48.7412 43.0322 48.5599 42.5943 48.2307 42.2649L45.5957 39.6299C45.945 38.959 46.2345 38.2596 46.4619 37.5376H50.1886C51.15 37.5376 51.9324 36.7553 51.9324 35.7939V31.4084C51.9326 30.447 51.1502 29.6647 50.1888 29.6647ZM49.4718 35.0767H45.5246C44.953 35.0767 44.4568 35.4702 44.3265 36.0269C44.0641 37.1483 43.6238 38.2119 43.0176 39.1879C42.7159 39.6735 42.7886 40.3029 43.1927 40.7073L45.9835 43.4981L43.897 45.5847L41.1061 42.7938C40.7019 42.3896 40.0725 42.3167 39.5866 42.6186C38.6104 43.2248 37.5468 43.6651 36.4257 43.9276C35.8691 44.0577 35.4755 44.554 35.4755 45.1258V49.0731H32.5248V45.1258C32.5248 44.5542 32.1313 44.0579 31.5746 43.9276C30.4536 43.6655 29.3899 43.2251 28.4136 42.6186C27.9281 42.3174 27.2986 42.3896 26.8942 42.7938L24.1034 45.5847L22.0168 43.4981L24.8077 40.7073C25.2119 40.303 25.2845 39.6737 24.9829 39.1879C24.3767 38.2117 23.9364 37.1481 23.674 36.0269C23.5439 35.4702 23.0475 35.0767 22.4759 35.0767H18.5287V32.126H22.4759C23.0475 32.126 23.5438 31.7324 23.674 31.1757C23.9364 30.0545 24.3767 28.9909 24.9829 28.0148C25.2845 27.5291 25.2119 26.8998 24.8077 26.4954L22.0168 23.7045L24.1034 21.618L26.8942 24.4088C27.2981 24.8131 27.9278 24.8858 28.4136 24.5841C29.3896 23.9778 30.4532 23.5375 31.5746 23.2752C32.1313 23.1451 32.5248 22.6488 32.5248 22.077V18.1297H35.4755V22.077C35.4755 22.6486 35.8691 23.1449 36.4257 23.2752C37.5469 23.5375 38.6104 23.9778 39.5867 24.5841C40.072 24.8854 40.7017 24.8128 41.1061 24.4088L43.897 21.618L45.9835 23.7045L43.1927 26.4954C42.7884 26.8996 42.7159 27.529 43.0176 28.0148C43.6236 28.9906 44.064 30.0542 44.3265 31.1757C44.4568 31.7324 44.9529 32.126 45.5246 32.126H49.4718V35.0767Z" fill="white"/>
<path d="M33.9999 27.0092C30.3649 27.0092 27.4079 29.9665 27.4079 33.6013C27.4079 37.2361 30.3651 40.1933 33.9999 40.1933C37.6347 40.1933 40.5919 37.2361 40.5919 33.6013C40.5919 29.9665 37.6349 27.0092 33.9999 27.0092ZM33.9999 37.7323C31.7221 37.7323 29.8688 35.8791 29.8688 33.6013C29.8688 31.3234 31.7221 29.4702 33.9999 29.4702C36.2777 29.4702 38.131 31.3234 38.131 33.6013C38.131 35.8791 36.2777 37.7323 33.9999 37.7323Z" fill="white"/>
<path d="M5.71134 32.3708H1.62915C0.949602 32.3708 0.398682 32.9217 0.398682 33.6013C0.398682 34.2808 0.949602 34.8317 1.62915 34.8317H5.71134C6.39089 34.8317 6.94181 34.2808 6.94181 33.6013C6.94181 32.9217 6.39089 32.3708 5.71134 32.3708Z" fill="white"/>
<path d="M66.3709 32.3708H62.2887C61.609 32.3708 61.0582 32.9217 61.0582 33.6013C61.0582 34.2808 61.609 34.8317 62.2887 34.8317H66.3709C67.0506 34.8317 67.6014 34.2808 67.6014 33.6013C67.6014 32.9217 67.0504 32.3708 66.3709 32.3708Z" fill="white"/>
<path d="M14.8669 52.7343C14.3865 52.2538 13.6074 52.2538 13.1267 52.7343L10.2402 55.6209C9.75964 56.1014 9.75964 56.8805 10.2402 57.3611C10.7207 57.8416 11.4998 57.8416 11.9804 57.3611L14.8669 54.4746C15.3474 53.994 15.3474 53.2149 14.8669 52.7343Z" fill="white"/>
<path d="M57.7598 9.84175C57.2791 9.36121 56.5001 9.36121 56.0194 9.84175L53.1329 12.7283C52.6524 13.2088 52.6524 13.9879 53.1329 14.4685C53.6136 14.949 54.3926 14.9488 54.8733 14.4685L57.7598 11.582C58.2403 11.1013 58.2403 10.3221 57.7598 9.84175Z" fill="white"/>
<path d="M34.0001 0C33.3204 0 32.7697 0.550921 32.7697 1.23047V5.31266C32.7697 5.99221 33.3204 6.54313 34.0001 6.54313C34.6798 6.54313 35.2306 5.99221 35.2306 5.31266V1.23047C35.2306 0.550921 34.6798 0 34.0001 0Z" fill="#1D80EB"/>
<path d="M57.7598 55.6209L54.8733 52.7343C54.3926 52.2538 53.6136 52.2538 53.1329 52.7343C52.6524 53.2149 52.6524 53.9942 53.1329 54.4746L56.0194 57.3611C56.5001 57.8416 57.2791 57.8416 57.7598 57.3611C58.2403 56.8805 58.2403 56.1014 57.7598 55.6209Z" fill="white"/>
<path d="M14.8669 12.7283L11.9804 9.84175C11.4998 9.36121 10.7207 9.36121 10.2402 9.84175C9.75964 10.3223 9.75964 11.1014 10.2402 11.582L13.1267 14.4685C13.6072 14.949 14.3864 14.949 14.8669 14.4685C15.3474 13.9878 15.3474 13.2086 14.8669 12.7283Z" fill="white"/>
<path d="M58.5484 30.5869C57.2243 19.2871 48.267 10.329 37.0202 8.95812C36.3467 8.87527 35.732 9.35614 35.6496 10.0306C35.5674 10.7052 36.0476 11.3188 36.7223 11.4012C46.9363 12.6461 54.9064 20.6535 56.1039 30.8734C56.1773 31.4996 56.709 31.9606 57.3244 31.9606C57.3723 31.9606 57.4205 31.9578 57.4692 31.9523C58.1445 31.8733 58.6275 31.262 58.5484 30.5869Z" fill="white"/>
<path d="M57.4548 35.2517C56.7795 35.1657 56.1647 35.6437 56.0794 36.318C55.2406 42.9441 51.5006 48.7908 45.8185 52.3583C43.3689 53.8964 41.9066 56.5286 41.9066 59.3994V64.4635H26.0938V59.2873C26.0938 56.5074 24.641 53.8811 22.3026 52.4336C15.6899 48.3403 11.742 41.2598 11.7418 33.4933C11.7418 22.2793 20.1414 12.7824 31.2801 11.4026C31.9546 11.3191 32.4335 10.7046 32.35 10.0301C32.2665 9.3558 31.6522 8.87559 30.9774 8.96024C18.6703 10.4849 9.2802 21.0685 9.28036 33.4933C9.28036 37.7807 10.3955 42.005 12.5055 45.7095C14.5509 49.3008 17.4907 52.3495 21.0069 54.5261C22.6263 55.5285 23.6322 57.3529 23.6322 59.2872V64.6426C22.3811 65.0774 21.4789 66.2655 21.4789 67.6629V69.417C21.4789 70.1597 21.7355 70.8424 22.1615 71.3859C21.7353 71.9295 21.4789 72.612 21.4789 73.3548V75.1088C21.4789 76.873 22.9143 78.3082 24.6783 78.3082H28.5468V81.0899C28.5468 82.6946 29.8523 84 31.4568 84H36.5423C38.1469 84 39.4522 82.6946 39.4522 81.0899V78.3082H43.3208C45.085 78.3082 46.5202 76.8728 46.5202 75.1088V73.3548C46.5202 72.6121 46.2636 71.9295 45.8374 71.3859C46.2636 70.8424 46.5202 70.1599 46.5202 69.417V67.6629C46.5202 66.2654 45.6182 65.0774 44.3669 64.6426V59.3992C44.3669 57.3804 45.3983 55.5275 47.1264 54.4426C53.4352 50.4814 57.5883 43.9879 58.52 36.627C58.6062 35.9527 58.1289 35.337 57.4548 35.2517ZM36.9916 81.0897C36.9916 81.333 36.786 81.5387 36.5427 81.5387H31.4573C31.214 81.5387 31.0084 81.3332 31.0084 81.0897V78.308H36.9916V81.0897ZM44.0597 75.1087C44.0597 75.5088 43.7216 75.8469 43.3215 75.8469C41.1493 75.8469 26.7285 75.8469 24.6787 75.8469C24.2786 75.8469 23.9405 75.5088 23.9405 75.1087V73.3547C23.9405 72.9545 24.2786 72.6164 24.6787 72.6164H43.3215C43.7216 72.6164 44.0597 72.9545 44.0597 73.3547V75.1087ZM44.0597 69.4169C44.0597 69.817 43.7216 70.1551 43.3215 70.1551H24.6787C24.2786 70.1551 23.9405 69.817 23.9405 69.4169V67.6627C23.9405 67.2625 24.2786 66.9244 24.6787 66.9244H43.3215C43.7216 66.9244 44.0597 67.2625 44.0597 67.6627V69.4169Z" fill="white"/>
</svg>
